<?xml version="1.0" encoding="UTF-8"?>
<svg id="SpeX_Code_Branding" xmlns="http://www.w3.org/2000/svg" version="1.1" viewBox="0 0 40 40">
  <g fill="#FFFFFF">
    <rect x="2" y="2" width="10" height="4" />
    <rect x="2" y="6" width="4" height="4" />
    <rect x="2" y="10" width="10" height="4" />
    <rect x="8" y="14" width="4" height="4" />
    <rect x="2" y="18" width="10" height="4" />
    <rect x="15" y="2" width="4" height="20" />
    <rect x="19" y="2" width="7" height="4" />
    <rect x="22" y="6" width="4" height="4" />
    <rect x="19" y="10" width="7" height="4" />
    <rect x="2" y="24" width="4" height="14" />
    <rect x="2" y="24" width="10" height="4" />
    <rect x="2" y="29" width="8" height="4" />
    <rect x="2" y="34" width="10" height="4" />
    <polygon points="15,24 19,24 22,28 25,24 29,24 24,31 29,38 25,38 22,34 19,38 15,38 20,31" />
  </g>
</svg>
